<svg xmlns="http://www.w3.org/2000/svg" viewBox="0 0 200 200" fill="none">
  <polygon points="65,35 135,35 165,55 165,145 135,165 65,165 35,145 35,55" stroke="#1a1a2e" stroke-width="1.5" fill="#f0f0f8"/>
  <polygon points="75,55 125,55 148,70 148,130 125,145 75,145 52,130 52,70" stroke="#1a1a2e" stroke-width="0.8" fill="#e0e0f0"/>
  <line x1="65" y1="35" x2="75" y2="55" stroke="#1a1a2e" stroke-width="0.8"/>
  <line x1="135" y1="35" x2="125" y2="55" stroke="#1a1a2e" stroke-width="0.8"/>
  <line x1="165" y1="55" x2="148" y2="70" stroke="#1a1a2e" stroke-width="0.8"/>
  <line x1="165" y1="145" x2="148" y2="130" stroke="#1a1a2e" stroke-width="0.8"/>
  <line x1="135" y1="165" x2="125" y2="145" stroke="#1a1a2e" stroke-width="0.8"/>
  <line x1="65" y1="165" x2="75" y2="145" stroke="#1a1a2e" stroke-width="0.8"/>
  <line x1="35" y1="145" x2="52" y2="130" stroke="#1a1a2e" stroke-width="0.8"/>
  <line x1="35" y1="55" x2="52" y2="70" stroke="#1a1a2e" stroke-width="0.8"/>
</svg>