<svg xmlns="http://www.w3.org/2000/svg" viewBox="0 0 200 200" fill="none">
  <path d="M100,20 Q148,50 148,110 Q148,165 100,178 Q52,165 52,110 Q52,50 100,20 Z" stroke="#1a1a2e" stroke-width="1.5" fill="#f0f0f8"/>
  <path d="M100,45 Q130,65 130,110 Q130,150 100,160 Q70,150 70,110 Q70,65 100,45 Z" stroke="#1a1a2e" stroke-width="0.8" fill="#e0e0f0"/>
  <line x1="100" y1="20" x2="100" y2="45" stroke="#1a1a2e" stroke-width="0.8"/>
  <line x1="148" y1="110" x2="130" y2="110" stroke="#1a1a2e" stroke-width="0.8"/>
  <line x1="52" y1="110" x2="70" y2="110" stroke="#1a1a2e" stroke-width="0.8"/>
  <line x1="70" y1="70" x2="82" y2="80" stroke="#1a1a2e" stroke-width="0.8"/>
  <line x1="130" y1="70" x2="118" y2="80" stroke="#1a1a2e" stroke-width="0.8"/>
  <line x1="100" y1="160" x2="100" y2="178" stroke="#1a1a2e" stroke-width="0.8"/>
</svg>