<svg xmlns="http://www.w3.org/2000/svg" viewBox="0 0 200 200" fill="none">
  <polygon points="60,38 140,38 162,55 162,145 140,162 60,162 38,145 38,55" stroke="#1a1a2e" stroke-width="1.5" fill="#f0f0f8"/>
  <polygon points="75,58 125,58 144,72 144,128 125,142 75,142 56,128 56,72" stroke="#1a1a2e" stroke-width="0.8" fill="#e0e0f0"/>
  <line x1="60" y1="38" x2="75" y2="58" stroke="#1a1a2e" stroke-width="0.8"/>
  <line x1="140" y1="38" x2="125" y2="58" stroke="#1a1a2e" stroke-width="0.8"/>
  <line x1="162" y1="55" x2="144" y2="72" stroke="#1a1a2e" stroke-width="0.8"/>
  <line x1="162" y1="145" x2="144" y2="128" stroke="#1a1a2e" stroke-width="0.8"/>
  <line x1="140" y1="162" x2="125" y2="142" stroke="#1a1a2e" stroke-width="0.8"/>
  <line x1="60" y1="162" x2="75" y2="142" stroke="#1a1a2e" stroke-width="0.8"/>
  <line x1="38" y1="145" x2="56" y2="128" stroke="#1a1a2e" stroke-width="0.8"/>
  <line x1="38" y1="55" x2="56" y2="72" stroke="#1a1a2e" stroke-width="0.8"/>
  <line x1="100" y1="38" x2="100" y2="58" stroke="#1a1a2e" stroke-width="0.8"/>
  <line x1="100" y1="142" x2="100" y2="162" stroke="#1a1a2e" stroke-width="0.8"/>
</svg>